<?xml version="1.0" encoding="UTF-8" standalone="no"?>
<!-- Created with Inkscape (http://www.inkscape.org/) -->

<svg
   xmlns:dc="http://purl.org/dc/elements/1.1/"
   xmlns:cc="http://creativecommons.org/ns#"
   xmlns:rdf="http://www.w3.org/1999/02/22-rdf-syntax-ns#"
   xmlns:svg="http://www.w3.org/2000/svg"
   xmlns="http://www.w3.org/2000/svg"
   xmlns:sodipodi="http://sodipodi.sourceforge.net/DTD/sodipodi-0.dtd"
   xmlns:inkscape="http://www.inkscape.org/namespaces/inkscape"
   width="1535.2253"
   height="1246.6768"
   viewBox="0 0 406.19508 329.8499"
   version="1.1"
   id="svg8"
   inkscape:version="0.92.3 (2405546, 2018-03-11)"
   sodipodi:docname="batch_file.svg">
  <defs
     id="defs2" />
  <sodipodi:namedview
     id="base"
     pagecolor="#ffffff"
     bordercolor="#666666"
     borderopacity="1.0"
     inkscape:pageopacity="0.0"
     inkscape:pageshadow="2"
     inkscape:zoom="0.34"
     inkscape:cx="1518.371"
     inkscape:cy="1216.706"
     inkscape:document-units="px"
     inkscape:current-layer="layer1"
     showgrid="false"
     units="px"
     inkscape:window-width="1920"
     inkscape:window-height="1017"
     inkscape:window-x="-8"
     inkscape:window-y="-8"
     inkscape:window-maximized="1"
     showguides="false" />
  <metadata
     id="metadata5">
    <rdf:RDF>
      <cc:Work
         rdf:about="">
        <dc:format>image/svg+xml</dc:format>
        <dc:type
           rdf:resource="http://purl.org/dc/dcmitype/StillImage" />
        <dc:title></dc:title>
      </cc:Work>
    </rdf:RDF>
  </metadata>
  <g
     inkscape:label="Camada 1"
     inkscape:groupmode="layer"
     id="layer1"
     transform="translate(-39.354348,19.92381)">
    <path
       style="fill:#000000;stroke-width:1"
       d="m 167.10279,276.18483 c -0.99401,-5.64758 -2.00815,-10.86219 -2.2536,-11.58801 -0.32471,-0.96009 -1.88004,-1.86069 -5.70792,-3.30505 -2.89387,-1.09194 -5.58998,-1.81365 -5.99134,-1.6038 -0.40139,0.20991 -5.49156,3.22323 -11.31152,6.69637 l -10.58174,6.31483 -11.58593,-10.04402 c -6.37223,-5.52422 -11.44832,-10.35535 -11.28013,-10.73588 0.16823,-0.38052 3.7725,-4.70065 8.0096,-9.60032 l 7.7038,-8.90845 -2.59414,-4.87378 -2.59412,-4.87373 -13.07266,-1.97507 -13.072652,-1.97506 v -14.23619 -14.23618 l 12.163202,-1.93257 c 6.68977,-1.0629 12.70106,-2.10285 13.3584,-2.31096 1.3784,-0.4364 5.97172,-9.15662 5.32736,-10.1138 -0.23454,-0.34836 -3.70824,-4.76483 -7.71936,-9.81433 l -7.29293,-9.18089 11.57611,-10.06039 c 6.36688,-5.53324 11.94866,-9.93636 12.4039,-9.78478 0.45526,0.15142 5.25392,3.09575 10.66364,6.54252 5.40973,3.44677 10.17137,6.44367 10.5814,6.65979 0.41003,0.21601 2.5892,-0.38226 4.84261,-1.32973 2.25335,-0.94745 4.31719,-1.72663 4.58627,-1.7315 1.6598,-0.0298 2.31016,-1.92452 4.14083,-12.06179 1.10742,-6.13232 2.01347,-11.26172 2.01347,-11.39867 0,-0.13683 7.49786,-0.249 16.66192,-0.249 9.16409,0 16.66449,0.19527 16.66765,0.43389 0.016,1.18183 4.05777,22.32869 4.34541,22.7326 0.18316,0.25708 1.4533,0.78198 2.82278,1.1664 1.36953,0.38444 3.63551,1.19892 5.03556,1.80992 l 2.54551,1.11093 11.18599,-6.97417 c 6.15227,-3.83579 11.32938,-6.97418 11.50466,-6.97418 0.17533,0 5.48658,4.67942 11.80285,10.39869 l 11.48414,10.39871 -7.94457,9.64734 -7.94452,9.64734 2.32192,4.68466 c 1.27708,2.57652 2.3747,4.74153 2.43915,4.81109 0.0982,0.10607 26.12702,3.63377 26.81139,3.63377 0.12595,0 0.22898,6.45893 0.22898,14.35316 v 14.35318 l -12.49647,1.90207 c -6.87302,1.04612 -13.13044,2.02572 -13.90533,2.17691 -0.96464,0.18824 -1.6711,1.03654 -2.24034,2.69047 -0.45726,1.32861 -1.41141,3.40465 -2.12033,4.61345 l -1.28899,2.19779 8.0917,9.88922 8.09168,9.88924 -11.55326,10.0404 c -6.35431,5.52226 -11.71339,10.04045 -11.9091,10.04045 -0.19578,0 -5.24145,-3.09281 -11.2128,-6.87292 l -10.85701,-6.87293 -5.4432,1.99262 c -2.99378,1.09591 -5.6213,2.24269 -5.83893,2.54835 -0.21763,0.30567 -1.40225,5.49551 -2.63244,11.533 l -2.23673,10.97725 h -16.46122 -16.46123 z m 25.3326,-48.47351 c 7.79143,-1.75007 13.8911,-6.02114 17.34169,-12.14285 7.83127,-13.89351 -1.72824,-29.9021 -19.57643,-32.78316 -13.84339,-2.23457 -27.53169,6.40774 -30.25091,19.09939 -1.85853,8.67441 3.31931,18.45235 12.22272,23.08167 6.58457,3.42365 13.2322,4.32417 20.26293,2.74495 z m 131.36482,-65.63723 -6.56943,-9.25342 -5.42716,0.0127 -5.42717,0.0127 -6.64532,8.73233 c -3.65492,4.80277 -6.95399,8.83272 -7.33125,8.95545 -1.19132,0.38747 -28.68312,-10.06949 -28.61089,-10.88267 0.0368,-0.41548 1.2253,-5.25295 2.64088,-10.74993 l 2.57378,-9.99448 -3.64057,-3.10548 -3.64063,-3.10549 -12.17397,2.18283 c -6.69566,1.20056 -12.28539,2.01925 -12.42163,1.81931 -0.54067,-0.79358 -11.06094,-24.3878 -11.06094,-24.80682 0,-0.2466 4.72367,-2.93932 10.49702,-5.98385 l 10.49702,-5.53547 0.17054,-4.869251 0.17053,-4.869279 -10.07841,-5.768074 c -5.54315,-3.17243 -10.20517,-6.054723 -10.36007,-6.405093 -0.15491,-0.350385 2.15781,-5.564453 5.13937,-11.586802 2.98151,-6.02238 5.67005,-11.501457 5.97446,-12.17575 l 0.55346,-1.226001 11.54637,2.248428 c 6.35047,1.236671 12.01261,2.375503 12.58247,2.53075 0.66163,0.180108 2.16886,-0.856541 4.17009,-2.868562 l 3.13396,-3.150853 -2.58252,-10.749222 c -1.42039,-5.912065 -2.39721,-10.847664 -2.17066,-10.968031 0.9523,-0.50595 28.02722,-9.589493 28.58298,-9.589493 0.33464,0 3.55081,4.175056 7.14703,9.277919 l 6.53855,9.277889 5.33111,-0.166536 5.33112,-0.16652 6.39794,-8.808721 c 3.51886,-4.844783 6.74503,-8.814714 7.16933,-8.822038 0.42429,-0.0079 5.97271,1.913738 12.32984,4.269056 6.35711,2.35532 12.64619,4.671558 13.97571,5.14721 l 2.41732,0.864802 -2.81523,10.711568 -2.81524,10.711536 3.60661,3.130511 3.60665,3.130511 12.4535,-2.42779 c 6.84943,-1.33527 12.65475,-2.265995 12.9007,-2.068273 0.55106,0.44296 11.21617,23.946703 11.21617,24.71809 0,0.305422 -4.79863,3.124963 -10.66364,6.265669 l -10.66365,5.710362 v 4.489326 4.489282 l 9.83057,5.22338 c 5.40678,2.8729 10.32563,5.5634 10.93077,5.97891 0.99843,0.68562 0.55637,1.85267 -4.77823,12.61468 -3.23319,6.52254 -6.1276,12.18704 -6.4321,12.58781 -0.42867,0.56423 -3.35978,0.0945 -12.99133,-2.08197 l -12.43778,-2.81058 -3.59391,3.11949 -3.59392,3.11948 2.7824,11.40011 c 1.53033,6.27004 2.59635,11.56977 2.36893,11.7771 -0.47106,0.42944 -27.78834,9.74803 -28.56492,9.74418 -0.27893,-0.001 -3.46336,-4.16655 -7.07652,-9.25592 z m -4.8804,-44.24963 c 10.79994,-2.44171 17.85762,-9.09004 19.93308,-18.777023 1.44008,-6.721265 -1.53047,-14.583549 -7.45185,-19.723228 -5.92133,-5.139694 -14.97937,-7.718087 -22.72285,-6.468114 -11.82881,1.909378 -19.91535,8.928438 -22.11515,19.195698 -1.43019,6.675176 1.53002,14.583167 7.34992,19.634777 6.80491,5.90663 16.02256,8.16906 25.00685,6.13789 z"
       id="path826"
       inkscape:connector-curvature="0" />
    <path
       style="fill:#000000;stroke-width:0.99999994"
       d=""
       id="path839"
       inkscape:connector-curvature="0" />
    <path
       style="fill:#000000;stroke-width:0.99999988"
       d="M 39.354348,145.00112 V -19.92381 H 242.45188 445.54939 V 145.00112 309.92607 H 242.45188 39.354348 Z m 404.381672,6.91303 V -4.1226014 H 242.45188 41.167716 V 151.91415 307.95092 H 242.45188 443.73602 Z"
       id="path9555"
       inkscape:connector-curvature="0"
       sodipodi:nodetypes="cccccccccccccccccc" />
    <a
       id="a13309"
       transform="translate(3.3662981,0.0687826)">
      <path
         inkscape:connector-curvature="0"
         id="path9581"
         d="m 439.86128,12.048491 a 5.1026778,5.2527575 0 0 1 -5.10267,5.252757 5.1026778,5.2527575 0 0 1 -5.10268,-5.252757 5.1026778,5.2527575 0 0 1 5.10268,-5.252758 5.1026778,5.2527575 0 0 1 5.10267,5.252758 z"
         style="fill:#ffffff;fill-opacity:1;stroke:none;stroke-width:0.26458332;stroke-opacity:1;paint-order:markers stroke fill"
         transform="scale(1,-1)" />
    </a>
    <g
       id="g13313"
       transform="translate(1.6507825)">
      <ellipse
         transform="scale(1,-1)"
         ry="5.2527575"
         rx="5.1026778"
         cy="11.853942"
         cx="422.61108"
         id="path9581-9"
         style="fill:#ffffff;fill-opacity:1;stroke:none;stroke-width:0.26458332;stroke-opacity:1;paint-order:markers stroke fill" />
    </g>
    <path
       style="fill:#ffffff;fill-opacity:1;stroke:none;stroke-width:0.26458332;stroke-opacity:1;paint-order:markers stroke fill"
       d="m 415.36003,-11.853942 a 5.1026778,5.2527575 0 0 0 -5.10267,-5.252758 5.1026778,5.2527575 0 0 0 -5.10268,5.252758 5.1026778,5.2527575 0 0 0 5.10268,5.2527569 5.1026778,5.2527575 0 0 0 5.10267,-5.2527569 z"
       id="path9581-99"
       inkscape:connector-curvature="0" />
  </g>
</svg>
