<?xml version="1.0" encoding="UTF-8" standalone="no"?>
<!-- Created with Inkscape (http://www.inkscape.org/) -->

<svg
   xmlns:dc="http://purl.org/dc/elements/1.1/"
   xmlns:cc="http://creativecommons.org/ns#"
   xmlns:rdf="http://www.w3.org/1999/02/22-rdf-syntax-ns#"
   xmlns:svg="http://www.w3.org/2000/svg"
   xmlns="http://www.w3.org/2000/svg"
   xmlns:xlink="http://www.w3.org/1999/xlink"
   xmlns:sodipodi="http://sodipodi.sourceforge.net/DTD/sodipodi-0.dtd"
   xmlns:inkscape="http://www.inkscape.org/namespaces/inkscape"
   width="122.1706mm"
   height="100.90018mm"
   viewBox="0 0 122.1706 100.90018"
   version="1.1"
   id="svg8"
   inkscape:version="0.92.3 (2405546, 2018-03-11)"
   sodipodi:docname="php.svg">
  <defs
     id="defs2">
    <clipPath
       id="B">
      <path
         id="path831"
         d="M11.52 162C11.52 81.677 135.307 16.56 288 16.56S564.48 81.677 564.48 162 440.693 307.44 288 307.44 11.52 242.322 11.52 162" />
    </clipPath>
    <radialGradient
       spreadMethod="pad"
       r="1"
       id="C"
       gradientUnits="userSpaceOnUse"
       gradientTransform="matrix(363.05789,0,0,-363.05789,177.52002,256.30713)"
       fy="0"
       fx="0"
       cy="0"
       cx="0">
      <stop
         id="stop834"
         stop-color="#aeb2d5"
         offset="0%" />
      <stop
         id="stop836"
         stop-color="#aeb2d5"
         offset=".3%" />
      <stop
         id="stop838"
         stop-color="#484c89"
         offset=".75%" />
      <stop
         id="stop840"
         stop-color="#484c89"
         offset="1%" />
    </radialGradient>
    <clipPath
       id="D">
      <path
         id="path843"
         d="M0 324h576V0H0v324z" />
    </clipPath>
    <clipPath
       id="E">
      <path
         id="path846"
         d="M0 324h576V0H0v324z" />
    </clipPath>
  </defs>
  <sodipodi:namedview
     id="base"
     pagecolor="#ffffff"
     bordercolor="#666666"
     borderopacity="1.0"
     inkscape:pageopacity="0.0"
     inkscape:pageshadow="2"
     inkscape:zoom="1.01"
     inkscape:cx="314.58885"
     inkscape:cy="131.72611"
     inkscape:document-units="mm"
     inkscape:current-layer="layer1"
     showgrid="false"
     inkscape:snap-bbox="false"
     inkscape:window-width="1366"
     inkscape:window-height="705"
     inkscape:window-x="206"
     inkscape:window-y="1072"
     inkscape:window-maximized="1" />
  <metadata
     id="metadata5">
    <rdf:RDF>
      <cc:Work
         rdf:about="">
        <dc:format>image/svg+xml</dc:format>
        <dc:type
           rdf:resource="http://purl.org/dc/dcmitype/StillImage" />
        <dc:title></dc:title>
      </cc:Work>
    </rdf:RDF>
  </metadata>
  <g
     inkscape:label="Camada 1"
     inkscape:groupmode="layer"
     id="layer1"
     transform="translate(-45.9445,-92.028564)">
    <g
       aria-label="PHP"
       transform="matrix(0.96994047,0,0,1.0309911,0.26196371,-2.8816007)"
       style="font-style:normal;font-weight:normal;font-size:52.52051163px;line-height:1.25;font-family:sans-serif;letter-spacing:0px;word-spacing:0px;fill:#ffffff;fill-opacity:1;stroke:none;stroke-width:0.26458326"
       id="text819">
      <path
         d="m 85.541247,132.7845 q 0,2.56448 -0.897567,5.02638 -0.897568,2.43625 -2.564478,4.10316 -2.282386,2.25675 -5.103312,3.41076 -2.795281,1.15402 -6.97538,1.15402 h -6.129103 v 12.43771 h -9.847596 v -38.18507 h 16.207502 q 3.641559,0 6.129102,0.64111 2.513189,0.61548 4.436548,1.87207 2.30803,1.51305 3.513335,3.87237 1.230949,2.35932 1.230949,5.66749 z m -10.180978,0.23081 q 0,-1.61563 -0.871923,-2.76964 -0.871922,-1.17966 -2.025937,-1.64127 -1.538687,-0.61547 -3.00044,-0.66676 -1.461752,-0.0769 -3.898006,-0.0769 h -1.692556 v 11.43758 h 2.820926 q 2.513189,0 4.12881,-0.30774 1.641266,-0.30774 2.743991,-1.23095 0.948857,-0.82063 1.359174,-1.949 0.435961,-1.15402 0.435961,-2.79528 z"
         style="font-style:normal;font-variant:normal;font-weight:bold;font-stretch:normal;font-family:sans-serif;-inkscape-font-specification:'sans-serif Bold';text-align:center;text-anchor:middle;fill:#ffffff;stroke-width:0.26458326"
         id="path821"
         inkscape:connector-curvature="0" />
      <path
         d="m 126.72676,158.91653 h -9.84759 v -16.82297 h -14.54059 v 16.82297 h -9.847598 v -38.18507 h 9.847598 v 13.9764 h 14.54059 v -13.9764 h 9.84759 z"
         style="font-style:normal;font-variant:normal;font-weight:bold;font-stretch:normal;font-family:sans-serif;-inkscape-font-specification:'sans-serif Bold';text-align:center;text-anchor:middle;fill:#ffffff;stroke-width:0.26458326"
         id="path823"
         inkscape:connector-curvature="0" />
      <path
         d="m 168.01486,132.7845 q 0,2.56448 -0.89756,5.02638 -0.89757,2.43625 -2.56448,4.10316 -2.28239,2.25675 -5.10331,3.41076 -2.79528,1.15402 -6.97538,1.15402 h -6.12911 v 12.43771 h -9.84759 v -38.18507 h 16.2075 q 3.64156,0 6.1291,0.64111 2.51319,0.61548 4.43655,1.87207 2.30803,1.51305 3.51334,3.87237 1.23094,2.35932 1.23094,5.66749 z m -10.18097,0.23081 q 0,-1.61563 -0.87193,-2.76964 -0.87192,-1.17966 -2.02593,-1.64127 -1.53869,-0.61547 -3.00044,-0.66676 -1.46176,-0.0769 -3.89801,-0.0769 h -1.69256 v 11.43758 h 2.82093 q 2.51319,0 4.12881,-0.30774 1.64127,-0.30774 2.74399,-1.23095 0.94886,-0.82063 1.35918,-1.949 0.43596,-1.15402 0.43596,-2.79528 z"
         style="font-style:normal;font-variant:normal;font-weight:bold;font-stretch:normal;font-family:sans-serif;-inkscape-font-specification:'sans-serif Bold';text-align:center;text-anchor:middle;fill:#ffffff;stroke-width:0.26458326"
         id="path825"
         inkscape:connector-curvature="0" />
    </g>
    <g
       style="fill:#777bb3;fill-rule:evenodd;stroke:#000000;stroke-linecap:round;stroke-linejoin:round;fill-opacity:1"
       id="g935"
       transform="matrix(0.26458333,0,0,0.26458333,211.85531,118.43662)">
      <use
         id="use829"
         y="0.5"
         x="0.5"
         xlink:href="#A"
         width="100%"
         height="100%"
         style="fill:#777bb3;fill-opacity:1" />
      <symbol
         overflow="visible"
         id="A"
         style="overflow:visible;fill:#777bb3;fill-opacity:1">
        <svg
           id="svg875"
           version="1.1"
           fill-rule="initial"
           fill="initial"
           stroke="initial"
           width="64"
           viewBox="0 0 32 32"
           height="64"
           style="fill:#777bb3;fill-opacity:1">
          <defs
             id="defs849">
            <clipPath
               id="clipPath900">
              <path
                 id="path898"
                 d="M 11.52,162 C 11.52,81.677 135.307,16.56 288,16.56 440.693,16.56 564.48,81.677 564.48,162 564.48,242.323 440.693,307.44 288,307.44 135.307,307.44 11.52,242.322 11.52,162"
                 inkscape:connector-curvature="0" />
            </clipPath>
            <radialGradient
               spreadMethod="pad"
               r="1"
               id="radialGradient910"
               gradientUnits="userSpaceOnUse"
               gradientTransform="matrix(363.05789,0,0,-363.05789,177.52002,256.30713)"
               fy="0"
               fx="0"
               cy="0"
               cx="0">
              <stop
                 id="stop902"
                 stop-color="#aeb2d5"
                 offset="0%" />
              <stop
                 id="stop904"
                 stop-color="#aeb2d5"
                 offset=".3%" />
              <stop
                 id="stop906"
                 stop-color="#484c89"
                 offset=".75%" />
              <stop
                 id="stop908"
                 stop-color="#484c89"
                 offset="1%" />
            </radialGradient>
            <clipPath
               id="clipPath914">
              <path
                 id="path912"
                 d="M 0,324 H 576 V 0 H 0 Z"
                 inkscape:connector-curvature="0" />
            </clipPath>
            <clipPath
               id="clipPath918">
              <path
                 id="path916"
                 d="M 0,324 H 576 V 0 H 0 Z"
                 inkscape:connector-curvature="0" />
            </clipPath>
          </defs>
          <g
             id="g873"
             transform="matrix(0.05787,0,0,-0.057079,-0.666665,24.945283)"
             style="fill:#777bb3;fill-opacity:1">
            <g
               id="g853"
               clip-path="url(#B)"
               style="fill:#777bb3;fill-opacity:1">
              <path
                 id="path851"
                 d="M 11.52,162 C 11.52,81.677 135.307,16.56 288,16.56 440.693,16.56 564.48,81.677 564.48,162 564.48,242.323 440.693,307.44 288,307.44 135.307,307.44 11.52,242.322 11.52,162"
                 inkscape:connector-curvature="0"
                 style="fill:#777bb3;fill-opacity:1" />
            </g>
            <g
               id="g857"
               clip-path="url(#D)"
               style="fill:#777bb3;fill-opacity:1">
              <path
                 id="path855"
                 d="M 288,27.36 C 434.73,27.36 553.68,87.64 553.68,162 553.68,236.36 434.73,296.64 288,296.64 141.27,296.64 22.32,236.36 22.32,162 22.32,87.64 141.27,27.36 288,27.36"
                 inkscape:connector-curvature="0"
                 style="fill:#777bb3;fill-opacity:1" />
            </g>
            <g
               id="g871"
               clip-path="url(#E)"
               style="fill:#777bb3;fill-opacity:1">
              <path
                 id="path859"
                 d="m 161.734,145.307 c 12.065,0 21.072,2.225 26.77,6.6 5.638,4.34 9.532,11.862 11.573,22.353 1.903,9.806 1.178,16.653 -2.154,20.348 -3.407,3.774 -10.773,5.688 -21.893,5.688 h -19.28 l -10.7,-55 h 15.673 z M 98.67,77.557 c -0.895,0 -1.745,0.4 -2.314,1.092 a 3,3 0 0 0 -0.63,2.48 l 28.328,145.75 a 3,3 0 0 0 2.945,2.427 h 61.054 c 19.188,0 33.47,-5.2 42.447,-15.487 9.025,-10.33 11.812,-24.772 8.283,-42.92 -1.436,-7.394 -3.906,-14.26 -7.34,-20.4 -3.44,-6.155 -7.984,-11.85 -13.5,-16.93 -6.616,-6.192 -14.104,-10.682 -22.236,-13.324 -8.003,-2.607 -18.28,-3.93 -30.548,-3.93 h -24.722 l -7.06,-36.322 a 3,3 0 0 0 -2.944,-2.428 H 98.67 Z"
                 inkscape:connector-curvature="0"
                 style="fill:#777bb3;fill-opacity:1" />
              <path
                 id="path861"
                 d="m 159.224,197.307 h 16.808 c 13.42,0 18.083,-2.945 19.667,-4.7 2.628,-2.914 3.124,-9.058 1.435,-17.767 -1.898,-9.75 -5.416,-16.663 -10.458,-20.545 -5.162,-3.974 -13.554,-5.988 -24.94,-5.988 H 149.7 l 9.523,49 z m 28.83,35 H 127 a 6,6 0 0 1 -5.889,-4.855 L 92.783,81.7 a 6,6 0 0 1 5.889,-7.144 h 31.75 a 6,6 0 0 1 5.89,4.855 l 6.588,33.895 h 22.25 c 12.582,0 23.174,1.372 31.48,4.077 8.54,2.775 16.4,7.48 23.354,13.984 5.752,5.292 10.5,11.232 14.08,17.657 3.58,6.425 6.17,13.594 7.668,21.302 3.715,19.104 0.697,34.402 -8.97,45.466 -9.572,10.958 -24.614,16.514 -44.706,16.514 m -45.633,-90 h 19.313 c 12.8,0 22.336,2.4 28.6,7.234 6.264,4.834 10.492,12.875 12.688,24.157 2.1,10.832 1.144,18.476 -2.87,22.93 -4.014,4.454 -12.06,6.68 -24.12,6.68 H 154.28 l -11.856,-61 m 45.633,84 c 18.367,0 31.766,-4.82 40.188,-14.46 8.422,-9.64 10.957,-23.098 7.597,-40.375 -1.383,-7.117 -3.722,-13.624 -7.015,-19.52 -3.293,-5.896 -7.602,-11.293 -12.922,-16.184 -6.34,-5.933 -13.383,-10.16 -21.133,-12.68 -7.75,-2.52 -17.62,-3.782 -29.62,-3.782 h -27.196 l -7.53,-38.75 H 98.676 L 127,226.307 h 61.055"
                 inkscape:connector-curvature="0"
                 style="fill:#777bb3;fill-opacity:1" />
              <path
                 id="path863"
                 d="m 311.583,116.307 c -0.896,0 -1.745,0.4 -2.314,1.092 a 3,3 0 0 0 -0.63,2.48 l 12.53,64.5 c 1.192,6.133 0.898,10.535 -0.827,12.395 -1.056,1.137 -4.228,3.044 -13.607,3.044 h -22.702 l -15.755,-81.072 a 3,3 0 0 0 -2.945,-2.428 h -31.5 a 3,3 0 0 0 -2.945,3.572 l 28.328,145.75 a 3,3 0 0 0 2.945,2.427 h 31.5 a 3,3 0 0 0 2.945,-3.572 l -6.836,-35.178 h 24.422 c 18.605,0 31.22,-3.28 38.57,-10.028 7.5,-6.884 9.827,-17.9 6.947,-32.72 l -13.18,-67.825 a 3,3 0 0 0 -2.945,-2.428 h -32 z"
                 inkscape:connector-curvature="0"
                 style="fill:#777bb3;fill-opacity:1" />
              <path
                 id="path865"
                 d="m 293.66,271.057 h -31.5 a 6,6 0 0 1 -5.89,-4.855 l -28.328,-145.75 a 6,6 0 0 1 5.89,-7.144 h 31.5 a 6,6 0 0 1 5.89,4.855 l 15.283,78.645 h 20.23 c 9.363,0 11.328,-2 11.407,-2.086 0.568,-0.6 1.315,-3.44 0.082,-9.78 l -12.53,-64.5 a 6,6 0 0 1 5.89,-7.144 h 32 a 6,6 0 0 1 5.89,4.855 l 13.18,67.825 c 3.093,15.92 0.447,27.864 -7.86,35.5 -7.928,7.28 -21.208,10.82 -40.6,10.82 H 293.4 l 6.143,31.605 a 6,6 0 0 1 -5.89,7.145 m 0,-6 -7.53,-38.75 h 28.062 c 17.657,0 29.836,-3.082 36.54,-9.238 6.704,-6.156 8.7,-16.14 6.032,-29.938 l -13.18,-67.824 h -32 l 12.53,64.488 c 1.426,7.336 0.902,12.34 -1.574,15.008 -2.476,2.668 -7.746,4.004 -15.805,4.004 H 281.56 l -16.226,-83.5 h -31.5 l 28.328,145.75 h 31.5"
                 inkscape:connector-curvature="0"
                 style="fill:#777bb3;fill-opacity:1" />
              <path
                 id="path867"
                 d="m 409.55,145.307 c 12.065,0 21.072,2.225 26.77,6.6 5.638,4.34 9.532,11.86 11.574,22.353 1.903,9.806 1.178,16.653 -2.155,20.348 -3.407,3.774 -10.773,5.688 -21.893,5.688 h -19.28 l -10.7,-55 h 15.673 z m -63.062,-67.75 c -0.895,0 -1.745,0.4 -2.314,1.092 a 3,3 0 0 0 -0.631,2.48 l 28.328,145.75 a 3,3 0 0 0 2.946,2.427 h 61.053 c 19.2,0 33.47,-5.2 42.448,-15.487 9.025,-10.33 11.8,-24.77 8.283,-42.92 -1.438,-7.394 -3.907,-14.26 -7.342,-20.4 -3.435,-6.14 -7.984,-11.85 -13.5,-16.93 -6.616,-6.192 -14.104,-10.682 -22.236,-13.324 -8.003,-2.607 -18.28,-3.93 -30.548,-3.93 H 388.24 l -7.057,-36.322 a 3,3 0 0 0 -2.946,-2.428 h -31.75 z"
                 inkscape:connector-curvature="0"
                 style="fill:#777bb3;fill-opacity:1" />
              <path
                 id="path869"
                 d="m 407.04,197.307 h 16.808 c 13.42,0 18.083,-2.945 19.667,-4.7 2.63,-2.914 3.125,-9.058 1.435,-17.766 -1.898,-9.75 -5.417,-16.664 -10.458,-20.546 -5.162,-3.974 -13.554,-5.988 -24.94,-5.988 H 397.52 l 9.522,49 z m 28.83,35 h -61.054 a 6,6 0 0 1 -5.889,-4.855 L 340.6,81.7 a 6,6 0 0 1 5.889,-7.144 h 31.75 a 6,6 0 0 1 5.89,4.855 l 6.587,33.895 h 22.25 c 12.582,0 23.174,1.372 31.48,4.077 8.54,2.775 16.4,7.48 23.356,13.986 5.752,5.3 10.488,11.23 14.078,17.655 3.59,6.425 6.17,13.594 7.668,21.302 3.715,19.105 0.697,34.403 -8.97,45.467 -9.572,10.957 -24.613,16.513 -44.706,16.513 m -45.632,-90 h 19.312 c 12.8,0 22.336,2.4 28.6,7.234 6.264,4.834 10.492,12.875 12.688,24.157 2.102,10.832 1.145,18.476 -2.87,22.93 -4.015,4.454 -12.06,6.68 -24.12,6.68 h -21.754 l -11.855,-61 m 45.632,84 c 18.367,0 31.766,-4.82 40.188,-14.46 8.422,-9.64 10.957,-23.098 7.597,-40.375 -1.383,-7.117 -3.722,-13.624 -7.015,-19.52 -3.293,-5.896 -7.602,-11.293 -12.922,-16.184 -6.34,-5.933 -13.383,-10.16 -21.133,-12.68 -7.75,-2.52 -17.62,-3.782 -29.62,-3.782 h -27.196 l -7.53,-38.75 h -31.75 l 28.328,145.75 h 61.054"
                 inkscape:connector-curvature="0"
                 style="fill:#777bb3;fill-opacity:1" />
            </g>
          </g>
        </svg>
      </symbol>
    </g>
    <path
       style="fill:#777bb3;fill-opacity:1;stroke:none;stroke-width:0.26458332;stroke-opacity:1;paint-order:markers stroke fill"
       d="m 54.685239,192.52469 c -4.107296,-1.07661 -7.593108,-4.71256 -8.711945,-9.08717 -0.357128,-1.39636 -0.364634,-2.24429 -0.364634,-41.19225 0,-38.94795 0.0075,-39.79589 0.364634,-41.19225 1.132182,-4.42678 4.652219,-8.06097 8.814182,-9.10001 0.988892,-0.24688 7.168165,-0.27426 52.421874,-0.23225 l 51.30084,0.0476 1.38509,0.50549 c 3.50443,1.27894 6.26749,4.20782 7.55789,8.01147 l 0.50407,1.4858 v 40.47413 40.47414 l -0.50407,1.48579 c -1.2904,3.80366 -4.05346,6.73254 -7.55789,8.01148 l -1.38509,0.50549 -51.40308,0.0348 c -44.25154,0.0299 -51.544813,-0.002 -52.421871,-0.23227 z m 7.594689,-37.86859 v -6.48327 l 4.214126,-0.002 c 5.886115,-0.003 7.902235,-0.45442 10.822428,-2.42106 3.955708,-2.66401 5.929288,-6.52948 5.950398,-11.65446 0.0111,-2.70149 -0.2936,-4.1952 -1.23869,-6.0719 -1.449409,-2.87814 -4.176789,-4.9226 -7.800957,-5.84764 -2.124345,-0.54223 -4.733726,-0.67654 -13.14404,-0.67654 H 52.64764 v 19.82029 19.82028 h 4.816144 4.816144 z m 37.373252,-2.26914 0.0481,-8.6598 h 6.94453 6.94453 v 8.70611 8.70611 h 4.81615 4.81614 v -19.82029 -19.82028 h -4.81614 -4.81615 v 7.22421 7.22422 h -6.94636 -6.94636 v -7.22729 -7.22729 l -4.86245,0.0494 -4.86246,0.0494 -0.0477,19.54243 c -0.0262,10.74834 -0.007,19.64804 0.0417,19.77712 0.0697,0.18283 1.14436,0.22375 4.86387,0.18523 l 4.77444,-0.0494 z m 42.64883,2.26914 v -6.48327 h 4.15152 c 4.50141,0 5.95953,-0.17853 8.12288,-0.99457 2.7111,-1.02267 5.59878,-3.43183 6.89788,-5.75483 1.43873,-2.57269 2.11296,-6.06009 1.76516,-9.13024 -0.48698,-4.29886 -2.52008,-7.26746 -6.17769,-9.02028 -3.31337,-1.58784 -4.95466,-1.77062 -15.91748,-1.77258 l -8.47456,-0.002 v 19.82028 19.82029 h 4.81615 4.81614 z"
       id="path937"
       inkscape:connector-curvature="0" />
  </g>
</svg>
